<svg xmlns="http://www.w3.org/2000/svg" viewBox="0 0 649.28 649.28"><defs><style>.cls-1{isolation:isolate;}.cls-2,.cls-3{fill:none;stroke:#fff;stroke-miterlimit:10;}.cls-2{stroke-width:20px;opacity:0.3;}.cls-3{opacity:0.2;mix-blend-mode:overlay;}</style></defs><title>Fichier 1</title><g class="cls-1"><g id="Calque_2" data-name="Calque 2"><g id="Cercle_journée" data-name="Cercle journée"><circle class="cls-2" cx="324.64" cy="324.64" r="314.64"/><line class="cls-3" x1="324.93" x2="324.93" y2="20"/><line class="cls-3" x1="299.46" y1="0.98" x2="301.03" y2="20.92"/><line class="cls-3" x1="274.15" y1="3.95" x2="277.27" y2="23.7"/><line class="cls-3" x1="249.14" y1="8.9" x2="253.81" y2="28.35"/><line class="cls-3" x1="224.6" y1="15.8" x2="230.78" y2="34.82"/><line class="cls-3" x1="200.68" y1="24.6" x2="208.33" y2="43.08"/><line class="cls-3" x1="177.52" y1="35.25" x2="186.6" y2="53.07"/><line class="cls-3" x1="155.27" y1="47.69" x2="165.72" y2="64.74"/><line class="cls-3" x1="134.06" y1="61.83" x2="145.82" y2="78.01"/><line class="cls-3" x1="114.03" y1="77.59" x2="127.02" y2="92.8"/><line class="cls-3" x1="95.29" y1="94.88" x2="109.44" y2="109.02"/><line class="cls-3" x1="77.97" y1="113.58" x2="93.18" y2="126.57"/><line class="cls-3" x1="62.17" y1="133.58" x2="78.35" y2="145.34"/><line class="cls-3" x1="47.99" y1="154.77" x2="65.05" y2="165.21"/><line class="cls-3" x1="35.52" y1="176.99" x2="53.34" y2="186.07"/><line class="cls-3" x1="24.82" y1="200.13" x2="43.3" y2="207.79"/><line class="cls-3" x1="15.98" y1="224.04" x2="35" y2="230.22"/><line class="cls-3" x1="9.04" y1="248.57" x2="28.49" y2="253.24"/><line class="cls-3" x1="4.04" y1="273.56" x2="23.8" y2="276.69"/><line class="cls-3" x1="1.02" y1="298.88" x2="20.96" y2="300.44"/><line class="cls-3" y1="324.35" x2="20" y2="324.35"/><line class="cls-3" x1="0.98" y1="349.82" x2="20.92" y2="348.25"/><line class="cls-3" x1="3.95" y1="375.13" x2="23.7" y2="372.01"/><line class="cls-3" x1="8.9" y1="400.14" x2="28.35" y2="395.47"/><line class="cls-3" x1="15.8" y1="424.68" x2="34.82" y2="418.5"/><line class="cls-3" x1="24.6" y1="448.6" x2="43.08" y2="440.95"/><line class="cls-3" x1="35.25" y1="471.76" x2="53.07" y2="462.68"/><line class="cls-3" x1="47.69" y1="494.01" x2="64.74" y2="483.56"/><line class="cls-3" x1="61.83" y1="515.22" x2="78.01" y2="503.46"/><line class="cls-3" x1="77.59" y1="535.25" x2="92.8" y2="522.26"/><line class="cls-3" x1="94.88" y1="553.99" x2="109.02" y2="539.85"/><line class="cls-3" x1="113.58" y1="571.31" x2="126.57" y2="556.1"/><line class="cls-3" x1="133.58" y1="587.11" x2="145.34" y2="570.93"/><line class="cls-3" x1="154.77" y1="601.29" x2="165.21" y2="584.23"/><line class="cls-3" x1="176.99" y1="613.76" x2="186.07" y2="595.94"/><line class="cls-3" x1="200.13" y1="624.46" x2="207.79" y2="605.98"/><line class="cls-3" x1="224.04" y1="633.3" x2="230.22" y2="614.28"/><line class="cls-3" x1="248.57" y1="640.24" x2="253.24" y2="620.79"/><line class="cls-3" x1="273.56" y1="645.24" x2="276.69" y2="625.48"/><line class="cls-3" x1="298.88" y1="648.26" x2="300.44" y2="628.32"/><line class="cls-3" x1="324.35" y1="649.28" x2="324.35" y2="629.28"/><line class="cls-3" x1="349.82" y1="648.3" x2="348.25" y2="628.36"/><line class="cls-3" x1="375.13" y1="645.33" x2="372.01" y2="625.58"/><line class="cls-3" x1="400.14" y1="640.38" x2="395.47" y2="620.93"/><line class="cls-3" x1="424.68" y1="633.48" x2="418.5" y2="614.46"/><line class="cls-3" x1="448.6" y1="624.68" x2="440.95" y2="606.2"/><line class="cls-3" x1="471.76" y1="614.03" x2="462.68" y2="596.21"/><line class="cls-3" x1="494.01" y1="601.6" x2="483.56" y2="584.54"/><line class="cls-3" x1="515.22" y1="587.45" x2="503.46" y2="571.27"/><line class="cls-3" x1="535.25" y1="571.69" x2="522.26" y2="556.48"/><line class="cls-3" x1="553.99" y1="554.4" x2="539.85" y2="540.26"/><line class="cls-3" x1="571.31" y1="535.7" x2="556.1" y2="522.71"/><line class="cls-3" x1="587.11" y1="515.7" x2="570.93" y2="503.94"/><line class="cls-3" x1="601.29" y1="494.52" x2="584.23" y2="484.07"/><line class="cls-3" x1="613.76" y1="472.29" x2="595.94" y2="463.21"/><line class="cls-3" x1="624.46" y1="449.15" x2="605.98" y2="441.49"/><line class="cls-3" x1="633.3" y1="425.24" x2="614.28" y2="419.06"/><line class="cls-3" x1="640.24" y1="400.71" x2="620.79" y2="396.04"/><line class="cls-3" x1="645.24" y1="375.72" x2="625.48" y2="372.59"/><line class="cls-3" x1="648.26" y1="350.4" x2="628.32" y2="348.84"/><line class="cls-3" x1="649.28" y1="324.93" x2="629.28" y2="324.93"/><line class="cls-3" x1="648.3" y1="299.46" x2="628.36" y2="301.03"/><line class="cls-3" x1="645.33" y1="274.15" x2="625.58" y2="277.27"/><line class="cls-3" x1="640.38" y1="249.14" x2="620.93" y2="253.81"/><line class="cls-3" x1="633.48" y1="224.6" x2="614.46" y2="230.78"/><line class="cls-3" x1="624.68" y1="200.68" x2="606.2" y2="208.33"/><line class="cls-3" x1="614.03" y1="177.52" x2="596.21" y2="186.6"/><line class="cls-3" x1="601.6" y1="155.27" x2="584.54" y2="165.72"/><line class="cls-3" x1="587.45" y1="134.06" x2="571.27" y2="145.82"/><line class="cls-3" x1="571.69" y1="114.03" x2="556.48" y2="127.02"/><line class="cls-3" x1="554.4" y1="95.29" x2="540.26" y2="109.44"/><line class="cls-3" x1="535.7" y1="77.97" x2="522.71" y2="93.18"/><line class="cls-3" x1="515.7" y1="62.17" x2="503.94" y2="78.35"/><line class="cls-3" x1="494.52" y1="47.99" x2="484.07" y2="65.05"/><line class="cls-3" x1="472.29" y1="35.52" x2="463.21" y2="53.34"/><line class="cls-3" x1="449.15" y1="24.82" x2="441.49" y2="43.3"/><line class="cls-3" x1="425.24" y1="15.98" x2="419.06" y2="35"/><line class="cls-3" x1="400.71" y1="9.04" x2="396.04" y2="28.49"/><line class="cls-3" x1="375.72" y1="4.04" x2="372.59" y2="23.8"/><line class="cls-3" x1="350.4" y1="1.02" x2="348.84" y2="20.96"/></g></g></g></svg>